HIERARCHY
ROOT Hips
{
	OFFSET	0.00	0.00	0.00
	CHANNELS 6 Xposition Yposition Zposition Zrotation Xrotation Yrotation
	JOINT Spine
	{
		OFFSET	 0.00	0.01	 0.00
		CHANNELS 3 Zrotation Xrotation Yrotation
		JOINT Spine1
		{
			OFFSET	 0.00	 2.45913012437421	 0.00
			CHANNELS 3 Zrotation Xrotation Yrotation
            JOINT Neck
            {
                OFFSET	 0.00	 2.48462964506057	 0.00
                CHANNELS 3 Zrotation Xrotation Yrotation
                JOINT Head
                {
                    OFFSET	 0.00	 0.927524780924562	 0.00
                    CHANNELS 3 Zrotation Xrotation Yrotation
                    End Site 
                    {
                        OFFSET	 0.00	 1.14999962169752	 0.00
                    }
                }
            }
			JOINT LeftShoulder
			{
				OFFSET	 0.00	 2.48462964506057	 0.00
				CHANNELS 3 Zrotation Xrotation Yrotation
				JOINT LeftUpArm
				{
					OFFSET	 0.00	 1.24881979654096	 0.00
					CHANNELS 3 Zrotation Xrotation Yrotation
					JOINT LeftForeArm
					{
						OFFSET	 0.00	2.59758046908119	 0.00
						CHANNELS 3 Zrotation Xrotation Yrotation
						JOINT LeftHand
						{
							OFFSET	 0.00	2.45542024364365	 0.00
							CHANNELS 3 Zrotation Xrotation Yrotation
							JOINT LeftHandThumb 
							{
								OFFSET	 0.00	0.00	 0.00
								CHANNELS 3 Zrotation Xrotation Yrotation
								End Site
								{
									OFFSET	 0.00	0.00	1.00000003353624
								}
							}
							JOINT L_Wrist_End 
							{
								OFFSET	 0.00	0.99999967115358	 0.00
								CHANNELS 3 Zrotation Xrotation Yrotation
								End Site 
								{
									OFFSET	 0.00	 0.00	 0.00
								}
							}
						}
					}
				}
			}
			JOINT RightShoulder
			{
				OFFSET	 0.00	 2.48462964506057	 0.00
				CHANNELS 3 Zrotation Xrotation Yrotation
				JOINT RightUpArm
				{
					OFFSET	 0.00	 1.24881979654096	 0.00
					CHANNELS 3 Zrotation Xrotation Yrotation
					JOINT RightForeArm
					{
						OFFSET	 0.00	2.59758046908119	 0.00
						CHANNELS 3 Zrotation Xrotation Yrotation
						JOINT RightHand
						{
							OFFSET	 0.00	2.45542024364365	 0.00
							CHANNELS 3 Zrotation Xrotation Yrotation
							JOINT RightHandThumb 
							{
								OFFSET	 0.00	0.00	 0.00
								CHANNELS 3 Zrotation Xrotation Yrotation
								End Site
								{
									OFFSET	 0.00	0.00	1.00000003353624
								}
							}
							JOINT R_Wrist_End 
							{
								OFFSET	 0.00	0.99999967115358	 0.00
								CHANNELS 3 Zrotation Xrotation Yrotation
								End Site 
								{
									OFFSET	 0.00	 0.00	 0.00
								}
							}
						}
					}
				}
			}
		}
	}
	JOINT LeftUpLeg
	{
		OFFSET	 1.2719394002717	 0.00	 0.00
		CHANNELS 3 Zrotation Xrotation Yrotation
		JOINT LeftLowLeg
		{
			OFFSET	 0.00	-4.3429100912261	 0.00
			CHANNELS 3 Zrotation Xrotation Yrotation
			JOINT LeftFoot
			{
				OFFSET	 0.00	-4.48767017425826	 0.00
				CHANNELS 3 Zrotation Xrotation Yrotation
				JOINT LeftToeBase
                {
                    OFFSET	 0.00	0.00	 1.51507020887566
                    CHANNELS 3 Zrotation Xrotation Yrotation
                    End Site 
                    {
                        OFFSET	 0.00	0.00	 0.75000010571191
                    }
                }
			}
		}
	}
	JOINT RightUpLeg
	{
		OFFSET	 -1.2719393604653	 0.00	 0.00
		CHANNELS 3 Zrotation Xrotation Yrotation
		JOINT RightLowLeg
		{
			OFFSET	 0.00	-4.3429100912261	 0.00
			CHANNELS 3 Zrotation Xrotation Yrotation
			JOINT RightFoot
			{
				OFFSET	 0.00	-4.48767017425826	 0.00
				CHANNELS 3 Zrotation Xrotation Yrotation
				JOINT RightToeBase
                {
                    OFFSET	 0.00	0.00	 1.51507020887566
                    CHANNELS 3 Zrotation Xrotation Yrotation
                    End Site 
                    {
                        OFFSET	 0.00	0.00	 0.749999965609858
                    }
                }   
			}
		}
	}
}
MOTION 
Frames:	20 
Frame Time: 0.02 
 -3.040360107421875 -8.205079956054687 10.31719970703125 2.9547 80.7365 50.958 3.84824 -18.9236 -7.33857 6.12068 40.9047 -4.25598 20.2331 41.3651 -19.7215 9.16195 -58.1811 -7.57704 -118.315704 4.69782 -14.1228 -37.2035 3.54442 -164.29 0.0 -37.0889 0.0 9.59349 3.73259 -166.746 0.0 0.0 0.0 0.0 0.0 0.0 116.7228 2.06327 8.23871 36.9175 6.48706 -13.061 0.0 24.6895 0.0 -1.80972 -0.0710383 7.45202 0.0 0.0 0.0 0.0 0.0 0.0 10.9124 13.9624 9.35386 0.0 9.41712 0.0 -7.65414 1.1427002 3.55451 0.0 -10.72717 0.0 6.25744 -4.29856 29.2161 0.0 15.3041 0.0 18.7365 14.469875 -16.7972 0.0 -11.23837 0.0 
  -3.0642999267578124 -8.0822900390625 10.30510009765625 1.18486 80.956 51.3856 3.50212 -18.7574 -7.44879 6.13973 41.0633 -4.17556 19.3706 40.986 -18.9742 8.90261 -58.4831 -7.87232 -118.3376 4.55111 -13.9797 -37.2322 4.05807 -164.978 0.0 -37.7709 0.0 9.94169 3.44382 -166.719 0.0 0.0 0.0 0.0 0.0 0.0 116.4574 2.54897 7.01019 36.9848 6.98661 -12.5998 0.0 25.2643 0.0 -1.933 -0.0253081 7.8849 0.0 0.0 0.0 0.0 0.0 0.0 9.84777 13.9991 8.13857 0.0 8.48897 0.0 -7.45039 0.50339985 5.9649 0.0 -9.911819 0.0 5.87967 -5.24913 30.1564 0.0 15.2342 0.0 18.9786 15.08896 -16.6473 0.0 -11.35303 0.0 
  -3.092239990234375 -7.957340087890625 10.2952001953125 -0.683922 81.1973 51.8934 3.51436 -18.5879 -6.99328 5.70532 41.313 -3.73492 19.3406 40.2617 -19.2296 9.12966 -58.8667 -7.42085 -118.3113 4.84155 -13.8605 -36.7808 4.59118 -164.716 0.0 -38.4907 0.0 9.91213 3.17104 -167.567 0.0 0.0 0.0 0.0 0.0 0.0 116.6456 2.31935 7.12122 37.1605 7.10928 -12.751 0.0 25.7551 0.0 -0.938634 -0.0578642 11.9545 0.0 0.0 0.0 0.0 0.0 0.0 8.91454 13.8864 7.47494 0.0 7.7386 0.0 -7.44685 0.045599937 7.55963 0.0 -9.29328 0.0 5.37056 -6.06279 30.8263 0.0 14.6542 0.0 19.1078 15.9832 -16.3317 0.0 -11.44283 0.0 
  -3.1188198852539064 -7.837360229492187 10.28989990234375 -1.86092 81.3896 51.6267 3.84284 -18.5233 -6.16101 4.5329 41.8551 -3.30099 19.606 39.4218 -19.6063 9.85903 -59.0106 -6.26633 -117.7276 5.05795 -14.1081 -36.5274 4.88664 -164.237 0.0 -39.0707 0.0 9.53435 2.93829 -168.143 0.0 0.0 0.0 0.0 0.0 0.0 117.1511 2.22469 7.3208 37.4291 7.21863 -13.1529 0.0 26.112 0.0 -1.49752 0.104458 10.708 0.0 0.0 0.0 0.0 0.0 0.0 8.08287 13.9869 7.8047 0.0 6.82907 0.0 -7.47543 0.04529953 8.01173 0.0 -8.98839 0.0 4.75797 -6.56534 31.3178 0.0 13.5927 0.0 19.0299 17.18665 -15.9582 0.0 -11.7591095 0.0 
  -3.1419000244140625 -7.723070068359375 10.289000244140626 -2.7131 81.5526 50.9802 4.33236 -18.5012 -5.15618 3.03729 42.4012 -2.8343 19.9318 38.8183 -19.892 10.6348 -59.0816 -5.01403 -117.0542 5.19528 -14.2055 -36.2538 5.24193 -163.968 0.0 -39.3403 0.0 9.24915 2.75414 -168.631 0.0 0.0 0.0 0.0 0.0 0.0 117.7583 2.21993 7.47961 37.7287 7.21998 -13.7472 0.0 26.3371 0.0 -1.08742 0.356727 11.7415 0.0 0.0 0.0 0.0 0.0 0.0 7.24507 14.3323 8.64021 0.0 5.55462 0.0 -7.43177 0.45119953 8.11055 0.0 -8.838739 0.0 4.09392 -6.88568 31.3274 0.0 12.2309 0.0 18.7144 18.71157 -15.4034 0.0 -12.591579 0.0 
  -3.1618701171875 -7.617930297851562 10.290799560546875 -4.12066 81.705 50.9452 5.0295 -18.612 -4.01148 1.22248 42.8319 -2.40279 20.1411 38.5238 -19.9143 11.4869 -59.108 -4.11915 -116.1859 5.23661 -14.4134 -36.0909 5.41292 -163.696 0.0 -39.2861 0.0 9.19886 2.6348 -168.959 0.0 0.0 0.0 0.0 0.0 0.0 118.462296 2.24901 7.59861 38.1624 7.09741 -14.507 0.0 26.379 0.0 -0.95914 0.508624 11.4948 0.0 0.0 0.0 0.0 0.0 0.0 6.4541 14.816 9.30903 0.0 3.87426 0.0 -7.30193 1.1377001 8.44937 0.0 -8.90806 0.0 3.51616 -7.1758 30.8031 0.0 10.7723 0.0 18.2261 20.426 -14.745 0.0 -14.445153 0.0 
  -3.179460144042969 -7.522730102539063 10.293299560546876 -7.34086 81.8638 52.9303 5.9861 -18.8912 -2.77897 -0.798894 42.9454 -2.09037 20.8472 38.5322 -20.3144 12.0846 -59.0672 -2.63386 -115.25 5.12892 -14.3778 -35.9319 5.60911 -163.542 0.0 -38.928 0.0 9.04044 2.59289 -168.81 0.0 0.0 0.0 0.0 0.0 0.0 119.339096 2.25172 7.36816 38.5603 7.00338 -15.2682 0.0 26.2436 0.0 -0.663844 0.560767 11.1592 0.0 0.0 0.0 0.0 0.0 0.0 5.8674 15.1458 9.61921 0.0 2.03253 0.0 -7.14583 1.8282003 9.01375 0.0 -8.82473 0.0 3.17927 -7.65851 29.4408 0.0 9.5352 0.0 17.7145 22.00052 -14.1137 0.0 -17.01254 0.0 
  -3.197919921875 -7.43875 10.296800537109375 -11.5828 81.9871 56.1939 6.93294 -19.2535 -1.69274 -2.79836 42.8701 -1.98323 21.616 38.6262 -20.673 12.396 -58.7406 -0.898009 -114.2585 4.8148 -14.4461 -35.8818 5.63076 -163.539 0.0 -38.3248 0.0 9.22285 2.69374 -168.257 0.0 0.0 0.0 0.0 0.0 0.0 120.2699 2.35583 7.36465 39.0092 6.59282 -16.2014 0.0 25.9958 0.0 -0.640643 0.532285 8.01598 0.0 0.0 0.0 0.0 0.0 0.0 5.49992 15.2277 9.71812 0.0 0.412391 0.0 -7.12906 2.3542004 9.59196 0.0 -8.615379 0.0 3.13355 -8.25519 27.3641 0.0 8.78956 0.0 17.9033 22.83749 -14.4891 0.0 -19.76915 0.0 
  -3.2204299926757813 -7.36343017578125 10.301099853515625 -15.7821 82.0746 59.7073 7.67663 -19.5057 -0.806541 -4.55326 42.5147 -1.96237 22.1068 38.9184 -20.7181 12.6716 -58.4581 0.224578 -113.382095 4.56425 -14.3767 -35.8566 5.51167 -163.848 0.0 -37.4586 0.0 9.55041 2.82096 -167.569 0.0 0.0 0.0 0.0 0.0 0.0 121.3055 2.28531 7.16921 39.2959 6.3307 -17.4827 0.0 25.535 0.0 -0.00502759 0.609266 7.45602 0.0 0.0 0.0 0.0 0.0 0.0 5.30372 14.908 9.64439 0.0 -0.47506 0.0 -6.98412 2.6757002 10.123 0.0 -8.60178 0.0 3.28821 -8.8864 24.9583 0.0 8.6948 0.0 18.9857 22.50988 -16.0114 0.0 -20.87372 0.0 
  -3.248699951171875 -7.296010131835938 10.307900390625 -19.2119 82.1791 62.7621 8.01512 -19.6315 -0.281155 -5.95698 42.1019 -2.04751 22.3919 39.1486 -20.5613 12.9732 -58.2327 1.26404 -112.6434 4.25365 -14.4199 -35.9429 5.30911 -164.33 0.0 -36.3666 0.0 9.70208 2.98256 -166.739 0.0 0.0 0.0 0.0 0.0 0.0 122.3049 2.11778 7.46112 39.559 5.90788 -18.8941 0.0 24.9958 0.0 1.00577 0.516372 7.15785 0.0 0.0 0.0 0.0 0.0 0.0 5.19936 14.1711 9.63116 0.0 -0.535313 0.0 -6.69953 2.7616997 10.4301 0.0 -8.43865 0.0 3.51294 -9.53307 22.8431 0.0 9.29841 0.0 20.6549 21.40494 -17.7577 0.0 -20.84771 0.0 
  -3.2793399047851564 -7.23364990234375 10.316500244140625 -21.2479 82.2431 64.5269 8.5886 -19.5376 0.594851 -7.83778 41.7833 -1.99366 23.3529 38.9495 -21.2368 13.6724 -57.9393 3.05719 -111.2688 4.02544 -15.0411 -36.7331 4.73301 -165.374 0.0 -34.9608 0.0 10.4807 3.29516 -164.935 0.0 0.0 0.0 0.0 0.0 0.0 123.4047 1.7916 8.76101 40.1311 4.80227 -20.7947 0.0 24.5008 0.0 2.56625 0.0561365 5.37016 0.0 0.0 0.0 0.0 0.0 0.0 5.09521 13.3587 9.7552 0.0 -0.120695 0.0 -6.41579 2.7605 10.6213 0.0 -8.40331 0.0 3.81738 -10.0953 21.5011 0.0 10.4324 0.0 21.2469 20.56914 -18.6413 0.0 -20.6943 0.0 
  -3.309440002441406 -7.179000244140625 10.32760009765625 -21.095 82.1224 64.2461 8.62414 -19.2284 0.795866 -8.66738 41.5083 -2.13163 23.1214 39.1679 -20.7142 13.79 -58.1136 3.50727 -110.7947 3.88854 -14.7086 -36.926 4.58491 -166.837 0.0 -33.5436 0.0 10.8296 3.30091 -163.93 0.0 0.0 0.0 0.0 0.0 0.0 123.8562 1.78659 8.05516 40.4602 4.81949 -21.5894 0.0 24.0641 0.0 3.46597 -0.314728 4.32381 0.0 0.0 0.0 0.0 0.0 0.0 5.11609 12.7829 9.48952 0.0 0.524141 0.0 -6.1488 2.7009 11.0241 0.0 -8.44808 0.0 4.21472 -10.2557 20.9403 0.0 11.6819 0.0 20.2824 20.87843 -18.4757 0.0 -20.89612 0.0 
  -3.3375698852539064 -7.128140258789062 10.3372998046875 -20.5398 81.9972 63.4808 9.22754 -18.7563 1.69185 -10.3715 41.1978 -2.05029 24.0076 39.1658 -21.3513 14.5027 -58.2895 5.09925 -109.5477 3.73972 -15.0739 -38.0413 4.08252 -169.655 0.0 -31.6713 0.0 11.8649 3.79182 -161.51 0.0 0.0 0.0 0.0 0.0 0.0 124.5711 1.59782 8.56568 41.0839 3.92469 -22.9737 0.0 23.7472 0.0 4.59042 -0.725472 3.75386 0.0 0.0 0.0 0.0 0.0 0.0 5.10699 12.2547 9.2996 0.0 1.27147 0.0 -5.9232 2.5763998 11.4447 0.0 -8.49969 0.0 4.68545 -10.3687 21.613 0.0 13.1248 0.0 19.5653 21.757431 -17.7089 0.0 -21.79459 0.0 
  -3.3610501098632812 -7.084749755859375 10.34489990234375 -19.4956 81.8224 62.175 9.70528 -18.3011 2.41996 -11.6819 40.761 -2.02839 24.3545 39.6912 -21.3553 14.6918 -58.612 5.72466 -108.7487 3.89132 -14.5847 -38.9605 3.68602 -174.432 0.0 -29.6614 0.0 13.5181 3.81963 -158.548 0.0 0.0 0.0 0.0 0.0 0.0 124.9377 1.85379 7.43022 41.459 3.55084 -23.5633 0.0 23.7538 0.0 5.19328 -1.06945 2.81681 0.0 0.0 0.0 0.0 0.0 0.0 5.10306 11.8869 9.2105 0.0 1.99461 0.0 -5.62419 2.4329996 11.8404 0.0 -8.7499 0.0 5.20804 -10.3504 23.1035 0.0 14.7562 0.0 19.8072 21.843689 -16.4149 0.0 -20.973999 0.0 
  -3.382130126953125 -7.048209838867187 10.350999755859375 -18.6153 81.7489 61.0737 9.20473 -17.3785 2.063 -10.1195 39.4721 -2.39986 20.9794 41.6353 -17.6111 13.0006 -61.8054 1.71769 -115.5731 1.94666 -8.71916 -27.2514 11.2696 -325.675 0.0 30.6507 0.0 5.71234 -6.77072 -0.610695 0.0 0.0 0.0 0.0 0.0 0.0 124.5474 1.33823 6.8509 41.077 3.24925 -24.4953 0.0 23.9799 0.0 5.6608 -1.59228 2.10583 0.0 0.0 0.0 0.0 0.0 0.0 5.03313 11.4561 9.1851 0.0 2.77974 0.0 -5.22757 2.3001003 12.2311 0.0 -9.05937 0.0 5.7304 -10.2541 24.846 0.0 16.2963 0.0 19.8496 20.86243 -15.7438 0.0 -20.58299 0.0 
  -3.3974398803710937 -7.0304498291015625 10.3502001953125 -17.1996 81.5466 59.5026 7.88203 -17.9836 1.19095 -8.528 40.6723 -1.71183 19.6363 40.1584 -17.0608 11.3778 -60.8397 0.465575 -113.941 5.17203 -12.3398 -30.2078 5.38791 -326.639 0.0 28.8124 0.0 6.76962 -6.66549 0.595089 0.0 0.0 0.0 0.0 0.0 0.0 122.3369 1.63985 7.27809 42.4312 2.34046 -25.5586 0.0 24.3601 0.0 6.04124 -1.70111 1.30199 0.0 0.0 0.0 0.0 0.0 0.0 5.09145 11.3123 9.0954 0.0 3.44468 0.0 -5.07335 1.9434004 12.4686 0.0 -9.47923 0.0 6.32059 -9.80938 26.6892 0.0 17.4965 0.0 19.9732 19.68816 -15.7393 0.0 -19.51201 0.0 
  -3.407139892578125 -7.012440185546875 10.352099609375 -16.1186 81.424 58.5093 7.65431 -18.0744 1.23535 -8.55134 40.9004 -1.41652 19.4551 39.9497 -17.0825 11.0309 -61.0014 0.331008 -114.0942 5.16029 -12.6693 -30.5952 4.9813 -326.726 0.0 27.3011 0.0 6.44882 -6.8929 0.605538 0.0 0.0 0.0 0.0 0.0 0.0 121.8663 1.50679 7.14919 42.8652 1.75949 -26.8087 0.0 24.769 0.0 6.37183 -1.68394 1.07408 0.0 0.0 0.0 0.0 0.0 0.0 5.10808 11.0446 8.60581 0.0 4.11746 0.0 -4.81719 1.7013998 12.9236 0.0 -9.7879505 0.0 6.67866 -9.33693 28.0685 0.0 18.3218 0.0 20.6044 18.53339 -16.1427 0.0 -19.36811 0.0 
  -3.4130099487304686 -6.997579956054688 10.351800537109375 -14.8649 81.3598 57.4584 7.76322 -18.0921 1.59905 -9.17415 40.8522 -1.20479 19.6939 40.1091 -17.2887 11.0901 -61.1555 0.546503 -114.2397 4.89159 -12.0483 -30.5986 5.13265 -327.285 0.0 25.9602 0.0 6.34777 -7.30593 0.363066 0.0 0.0 0.0 0.0 0.0 0.0 121.7687 1.41975 7.22737 43.2192 0.841846 -28.1998 0.0 25.2056 0.0 6.66049 -1.61876 0.953993 0.0 0.0 0.0 0.0 0.0 0.0 5.07212 10.8536 8.03582 0.0 4.63342 0.0 -4.63052 1.5123997 13.293 0.0 -9.91614 0.0 6.85975 -8.83769 28.9739 0.0 18.8781 0.0 20.8763 17.49139 -16.6084 0.0 -19.20513 0.0 
  -3.4132901000976563 -6.984520263671875 10.35030029296875 -13.615 81.3707 56.4306 8.15755 -18.0825 2.23209 -10.2931 40.6536 -1.04294 20.2935 40.4119 -17.7055 11.4292 -61.2234 1.24084 -114.078 4.43556 -11.7794 -30.8229 5.04881 -327.842 0.0 24.6911 0.0 6.25707 -7.71522 0.249557 0.0 0.0 0.0 0.0 0.0 0.0 121.971 1.22906 7.27264 43.4978 0.015531 -29.5929 0.0 25.6268 0.0 6.70219 -1.55163 1.07715 0.0 0.0 0.0 0.0 0.0 0.0 4.93969 10.7643 7.57384 0.0 4.89672 0.0 -4.53952 1.4230003 13.5706 0.0 -10.01175 0.0 6.86811 -8.38241 29.2951 0.0 19.2296 0.0 20.4574 16.77873 -16.574 0.0 -19.3107 0.0 
  -3.409859924316406 -6.97531982421875 10.3481005859375 -12.0502 81.3492 55.1245 8.82114 -18.0079 3.11744 -11.7722 40.291 -0.915233 21.1706 40.9761 -18.3024 11.8359 -61.1439 1.85759 -113.287 4.97784 -12.8397 -31.3226 2.62753 -328.366 0.0 24.1139 0.0 6.32529 -8.10906 0.877596 0.0 0.0 0.0 0.0 0.0 0.0 122.2941 1.12492 7.1778 43.8767 -0.913986 -30.5771 0.0 25.9698 0.0 6.81038 -1.53776 1.46721 0.0 0.0 0.0 0.0 0.0 0.0 4.82294 10.8413 7.253 0.0 4.9911 0.0 -4.46405 1.4097996 13.6609 0.0 -10.00264 0.0 6.79886 -7.91432 29.2591 0.0 19.4656 0.0 19.7566 16.19893 -16.2219 0.0 -19.0736 0.0 
